<svg id="Capa_1" data-name="Capa 1" xmlns="http://www.w3.org/2000/svg" viewBox="0 0 807.4 840.19"><defs><style>.cls-1{fill:#380202;}.cls-2{fill:#f3f2f7;}.cls-3{opacity:0.32;}.cls-4{fill:#3a3a3a;}.cls-5{opacity:0.3;}.cls-6{opacity:0.39;}.cls-7{opacity:0.36;}.cls-8{opacity:0.35;}.cls-9{fill:#303030;}.cls-10{fill:#ddd;}</style></defs><path class="cls-1" d="M609.24,529.88c1.44,1.44,2.26,2.47,2.26,3.29s-1,1-3.09,1H442.86c-4.33,0-10.3.82-13.8,2.27L423.29,528c5.15.41,10.3.83,15,.83H511V386.76c0-11.94-.21-20.18-.62-27.18l15.44,7.62c1.44.82,2.27,1.24,2.27,2.06,0,.62-.83,1.44-2.06,2.47l-5.15,4.33v52.71h54.36l8.86-11.32,12.56,12.35c1.44,1.44,2.26,2.47,2.26,3.09,0,.82-1,1-2.88,1H520.9v94.93h66.72l8.23-12.15Z" transform="translate(-162.93 -93.68)"/><path class="cls-1" d="M698.19,377.09c1,.61,1.44,1.23,1.44,1.64,0,.62-.62,1-1.65,1.86l-5.35,3.7v28.83c0,5.56.2,10.91.62,15.44v1c0,2.06-.83,3.09-5.77,5.15a7.78,7.78,0,0,1-2.88.83c-1,0-1.24-.62-1.24-1.65v-8.65H654.53l-7.62,40.57h29.66l6.38-8,12.56,8.64c.62.42,1,.83,1,1.45,0,.41-.41,1-1.44,1.64l-6,3.91c-1,29.86-4.94,51.28-9.68,58.69-5.15,8.24-9.88,11.74-21,16.68a7.51,7.51,0,0,1-1.24.41c-.82,0-1.44-.62-1.65-2.06-1.44-6-5.56-8.85-23.68-13.79l.62-3.5c10.71,2.26,18.33,3.5,23.89,3.5,9.47,0,13.18-3.5,16.26-10.3,3.5-7.82,6.59-27.8,6.8-53.54H650l-4.94,5.36a2.88,2.88,0,0,1-1.85,1c-.41,0-.62-.21-1-.42l-13-7.61,9.06-5.36,6.59-36.24a132.8,132.8,0,0,0,2-14.62l9.89,9.88h26.56v-41H649.18c-4.32,0-10.3.82-13.8,2.26l-5.76-7.21c5.15.42,10.29.83,15,.83h35.42l5.35-8.45Zm118.19,21.2c1.45,1.45,2.06,2.27,2.06,2.89,0,.82-1,1-3.09,1h-97c-4.33,0-10.3.82-13.8,2.26l-5.76-7.62c5.14.42,10.29.83,15,.83h80.72l9.26-11.53Zm-47.77,89.17c24.09,20.18,37.07,36.24,37.07,45.3,0,7.41-3.92,13.38-7,13.38-2.48,0-4.74-2.47-4.95-7.2,0-2.89-1.64-8.24-4.53-14.62L732,531.94c-9.06,1.23-17.92,3.91-21.21,6.17a2.89,2.89,0,0,1-1.24.41c-.61,0-1.23-.41-2.06-1.64l-7.2-11.53c9.88-1.65,11.12-2.27,19.76-12.77a628.9,628.9,0,0,0,39.75-54.16c-29.86,4.94-40,7.83-45.1,10.92A3.27,3.27,0,0,1,713,470c-.61,0-1-.41-1.64-1.23l-7.83-10.3c6.38-1.23,10.09-3.5,15.45-11.32,6.38-9.27,15.64-27,21.82-43l11.74,5.77c1.65.82,2.27,1.44,2.27,2.06s-.62,1-2.06,1.44c-3.09.82-5.77,2.67-9.48,8.23-8.44,12.77-17.09,25.13-26.56,35.83l45.92-3.09c6.59-10.29,12.77-20.38,17.91-29.65l12.15,7.83c1,.61,1.65,1.23,1.65,1.85,0,.41-.62.82-1.65,1.24a22.51,22.51,0,0,0-10.7,7.82c-18.54,26.15-48,64.25-66.72,81.54L787.56,521a141.24,141.24,0,0,0-20.6-31.3ZM741.22,358.14C763.46,368,769,376.06,769,381.2s-4.94,11.74-8.23,11.74c-2.06,0-3.3-1.44-3.71-5.15-.82-7.41-7.83-19.77-17.71-27.59Z" transform="translate(-162.93 -93.68)"/><path class="cls-1" d="M947.58,711.81C781,845.31,537.69,818.47,404.19,651.87S297.53,242,464.14,108.48q9.69-7.76,19.71-14.8A415.94,415.94,0,0,0,342.29,168c-179.83,144.09-208.8,406.69-64.71,586.52s406.7,208.8,586.53,64.7A416.11,416.11,0,0,0,970.34,692.1Q959.42,702.3,947.58,711.81Z" transform="translate(-162.93 -93.68)"/><path class="cls-2" d="M924.58,734.81C758,868.31,514.69,841.47,381.19,674.87S274.53,265,441.14,131.48q9.69-7.75,19.71-14.8A415.94,415.94,0,0,0,319.29,191c-179.83,144.09-208.8,406.69-64.71,586.52s406.7,208.8,586.53,64.7A416.11,416.11,0,0,0,947.34,715.1Q936.42,725.3,924.58,734.81Z" transform="translate(-162.93 -93.68)"/><g class="cls-3"><path class="cls-4" d="M653.7,842.72c.33.2.46.4.46.53s-.19.33-.59.46c-2.05.73-2.44,1.19-3.63,3.7l-5.54,11.88c6.4,5.94,8,10,8,14.65,0,3.56-2,6-5.74,7.79a1.94,1.94,0,0,1-.46.13c-.26,0-.4-.13-.53-.53-.86-2.18-1.78-2.57-5.35-3.43v-1.06a26.59,26.59,0,0,0,4.16.4c2.58,0,4.89-.6,4.89-5,0-3.17-1.52-7.85-6.27-12.87l5.14-16.17h-8.77v39.07c0,5,0,10,.2,13v.46c0,.73-.2,1.06-1.59,1.72a4.07,4.07,0,0,1-1.19.46c-.46,0-.52-.4-.52-1.45v-.73c.13-3.89.19-9.83.19-13.59V847.8c0-2.7-.13-7.19-.26-9.63l4,3.76h7.33l1.85-2.44Zm36.83,49.63c.52.53.72.86.72,1.06s-.33.26-1,.26H653.5a15.09,15.09,0,0,0-4.42.66l-1.85-2.24c1.59.13,3.3.26,4.82.26h16.83V879.94h-9.3a14.06,14.06,0,0,0-4.23.66l-1.78-2.24c1.52.13,3.17.26,4.62.26h10.69v-5.8c0-2.58-.07-4.16-.2-6.47l4.75,2.44c.33.2.47.33.47.46a12,12,0,0,1-1.92,1.32v8h8.78l2.77-3.43,3.37,3.63c.39.46.59.73.59.86s-.26.26-.73.26H672v12.41h12.14l3.17-3.36Zm-.2-34.51c.46.46.72.79.72,1s-.33.33-1,.33H656.14a15.09,15.09,0,0,0-4.42.66l-1.85-2.25c1.59.13,3.3.27,4.82.27h14.12v-9.71h-9.17a14,14,0,0,0-4.22.66l-1.78-2.24c1.51.13,3.16.26,4.62.26h10.55v-3.95c0-2.58-.06-4.16-.19-6.47l4.55,2.24c.4.2.53.33.53.53s-.13.33-1.78,1.45v6.2h9.3l2.77-3.3,3.24,3.5c.39.46.59.73.59.86s-.26.26-.73.26H671.92v9.71h12.47l2.7-3.3Zm-23.63,5.34c.4.2.66.4.66.53s-.26.26-.72.33a3.42,3.42,0,0,0-2.51,1.25,110.75,110.75,0,0,1-10.63,10.5l-.66-.66a102.45,102.45,0,0,0,9.9-14Zm8.12-1.06c9.24,3.11,14,4.89,14,9.18a2.08,2.08,0,0,1-1.91,2.31c-.46,0-1.12-.66-1.45-1.26-2.51-4.09-5.42-6.53-11-9.43Z" transform="translate(-162.93 -93.68)"/></g><g class="cls-5"><path class="cls-4" d="M376.26,808.87c.27.26.4.46.4.59s-.2.27-.73.27H354.29a13.62,13.62,0,0,0-4.43.72L348,808.34c1.65.13,3.3.27,4.81.27h2.78V789.14c0-2.71-.07-7.13-.2-9.57l3.76,3h10.62l2.25-2.9,3.36,3.37c.2.19.33.33.33.46s-.19.2-.72.2h-16.3v8.11H368l1.85-2.83,3.17,3.3c.2.19.26.33.26.39s-.2.27-.66.27H358.71v7.59h9.5l2.18-2.91,2.9,3.37a.8.8,0,0,1,.27.46c0,.13-.2.2-.6.2H358.71v6.93h12.34l2.18-2.91Zm-10.16,7.92c1.65,1.39,7.52,6.6,7.52,10.29,0,1.72-1.05,2.58-1.65,2.58-.92,0-1.32-.86-1.78-2.64a22.42,22.42,0,0,0-1.05-3.23c-11.69,2.63-14.59,3.43-15.78,4.29a1.18,1.18,0,0,1-.59.26c-.13,0-.33-.13-.53-.4l-2.44-3.23a7.5,7.5,0,0,0,4.75-2.84,91.39,91.39,0,0,0,6-11.48l3.56,2.18c.26.13.33.26.33.39s-.07.13-.33.2a2.32,2.32,0,0,0-1.72.73l-8.71,10.89,15.12-1.85a22.33,22.33,0,0,0-3.3-5.55Zm43.89-22q.39.41.39.6c0,.13-.2.2-.59.2h-7.66a68.5,68.5,0,0,0,.27,8.24c0,.27.06.47.06.6,0,.79-.33,1-1.52,1.65a4.18,4.18,0,0,1-1.38.53c-.4,0-.4-.07-.4-2.51H390v8.58h8.12l2.44-3,3.1,3.1c.4.4.59.66.59.8s-.26.26-.85.26H390v8h12.47l2.38-3.36,3.43,3.43c.4.39.59.66.59.79s-.26.26-.85.26H390c0,6.21,0,9.24.13,11.55v.53c0,.86-.2,1.12-1.38,1.72a3.87,3.87,0,0,1-1.52.59c-.4,0-.46-.4-.46-1.25v-1.06c.13-2.84.19-6.2.19-12.08h-6.46a13.62,13.62,0,0,0-4.43.73l-1.84-2.11c1.65.13,3.3.26,4.81.26H387v-8h-5.21a13.26,13.26,0,0,0-4.42.73l-1.85-2.12c1.65.14,3.3.27,4.82.27H387v-8.58h-4.81a13.62,13.62,0,0,0-4.43.72l-1.84-2.11c1.65.14,3.3.27,4.81.27H387v-7.39h-6.6a13.56,13.56,0,0,0-4.42.72l-1.85-2.11c1.65.13,3.3.26,4.82.26H387v-8.31h-3.76a13.56,13.56,0,0,0-4.42.72l-1.85-2.11c1.65.14,3.3.27,4.82.27H387c0-2.78,0-7.39-.13-9.77l4.95,2.71c.4.19.66.39.66.52A11.62,11.62,0,0,1,390,780v5.09h8.38l1.78-2.38,3.57,2.71c.39.33.66.52.66.72a9.57,9.57,0,0,1-2.25,1.39v7h2.64l2.05-3Zm-10.83-.33v-8.31H390v8.31Zm0,8.52v-7.39H390V803Z" transform="translate(-162.93 -93.68)"/></g><g class="cls-6"><path class="cls-4" d="M507.77,831c.52.33.79.59.79.79s-.33.53-1,.72c-1.26.4-1.45.6-2.11,2-1.46,3.17-3.24,6.74-5.15,10.37l2.18,1.12c.33.2.52.33.52.53s-.19.46-1.78,2v27.2c0,4.48.13,7.78.27,10.42v.53c0,.86-.2,1.12-1.59,1.72a3.84,3.84,0,0,1-1.32.39c-.46,0-.59-.39-.59-1.38v-.73c.13-3.89.2-7.66.2-11.09V848.74a76.17,76.17,0,0,1-9.9,14.32l-.79-.59a130.87,130.87,0,0,0,16-34.06Zm41.37,51.87c.4.33.6.59.6.79s-.33.26-.93.26H508.49a13.56,13.56,0,0,0-4.42.73l-1.85-2.44a40.32,40.32,0,0,0,4.82.26h8.58L518.79,856h-5.55a13.56,13.56,0,0,0-4.42.72L507,854.28a40.39,40.39,0,0,0,4.82.27H519l2.12-17.69h-7.26a13.26,13.26,0,0,0-4.42.73l-1.85-2.45a40.39,40.39,0,0,0,4.82.27h26.39l2.64-3.7,4.36,4c.39.39.59.66.59.86s-.26.26-.86.26H524.07L522,854.55h12.74l2.31-3,4.36,2.84c.33.19.46.39.46.59s-.13.39-.46.59l-2.18,1.59-1.25,25.27h4.68l2.44-3.43ZM536.21,856H521.76l-3.17,26.46h16.3Z" transform="translate(-162.93 -93.68)"/></g><g class="cls-3"><path class="cls-4" d="M304.64,696.66c-3.3,0-4.42.86-5.41,2.18a.48.48,0,0,1-.46.26.72.72,0,0,1-.46-.13c-9.17-4.88-13.73-9.37-18.22-16.37h-12.6a72.61,72.61,0,0,1-24.68,19.14l-.6-.86A80.77,80.77,0,0,0,263.6,682.6H250a13.56,13.56,0,0,0-4.42.73l-1.85-2.44c1.65.13,3.3.26,4.82.26h16.17a59.91,59.91,0,0,0,5.08-7.72c-10.82.86-11.75,1-12.87,1.58a1.38,1.38,0,0,1-.59.2.57.57,0,0,1-.46-.2l-3.11-3.36a15.77,15.77,0,0,0,5.81-1.85c2.84-1.85,7-5.15,13.13-11.35l3.9,2.51a.62.62,0,0,1,.39.46q0,.3-1,.39a6.24,6.24,0,0,0-3.69,1.26c-7.13,5.15-9.84,7-12.48,8.64l29.44-1.05a52.79,52.79,0,0,0-7.59-6.6l.59-.66c9.11,4.62,13.27,7.65,13.27,10.49,0,1.52-.93,2.84-1.65,2.84a1.92,1.92,0,0,1-1.59-1.45,11.69,11.69,0,0,0-2.11-3.5l-18,1.52,2.9,1.45c.4.2.59.33.59.46s-.19.27-.52.33a4.75,4.75,0,0,0-2.51,1.65,45.41,45.41,0,0,1-3,4h26.73l2.9-3.89,4.55,4.49c.33.33.47.52.47.65s-.2.2-.53.2H281.68c6.66,8.52,14,11.82,23,13.33Zm-9.5,9.11c.27.26.4.46.4.59s-.13.26-1.59.26a10.55,10.55,0,0,0-4.09.8c-15.44,7.52-28.57,12.07-44.61,12.67V719c19.2-2.18,36.1-9.5,46.06-16.76Zm-15.05-16c.27.19.4.33.4.46s-.07.13-.79.13a6.58,6.58,0,0,0-3.23,1.06c-9.71,6.79-16.17,10.09-26.6,13.46l-.26-1c10.55-4.62,20.39-10.56,26.33-17.09Zm6.27,8.11c.33.27.47.4.47.53s-.14.2-.86.2a10.74,10.74,0,0,0-3.7,1c-12.6,7.13-20.46,10.1-30.42,12.47l-.26-.86c10.88-3.69,24.15-10.36,30.81-16.23Z" transform="translate(-162.93 -93.68)"/></g><g class="cls-7"><path class="cls-4" d="M258.38,543.93a50.27,50.27,0,0,0-.27,5.15c0,5.34,1.06,7.72,1.65,8.58,1,1.25,1.32,1.91,1.32,2.31a1,1,0,0,1-1,.86c-.72,0-2-.4-4.48-1.85-9.44-5.48-14.39-12-16.83-20.06a92.69,92.69,0,0,1-2.71-16.9H207.89a13.56,13.56,0,0,0-4.42.73l-1.85-2.44a43.39,43.39,0,0,0,4.82.26H236c-.2-5.94-.33-12.61-.27-20.19l4.95,3.16c.4.27.6.4.6.6s-.2.26-.47.39l-1.78,1c-.2,2.77-.26,5.35-.26,7.92,0,2.31.06,4.69.2,7.13h14.51l2.84-3.76,4,4.29a.9.9,0,0,1,.33.66c0,.13-.13.26-.53.26H239a80.55,80.55,0,0,0,2.64,16.43c2.51,7.79,6.6,12.15,12.34,15.45a3.32,3.32,0,0,0,1.52.66c.33,0,.46-.33.59-1.13l1.19-9.5Zm-22.64,3.24-21.45,5.14c-6.07,1.65-6.93,2.11-7.85,3.11-.2.26-.33.32-.53.32s-.33-.13-.52-.52l-2.12-3.63,32.34-5.48ZM233.1,534a.8.8,0,0,1,.27.53c0,.2-.2.26-.6.26h-21a13.62,13.62,0,0,0-4.43.73l-1.84-2.44c1.65.13,3.3.26,4.81.26h16.31l2.77-3Zm-2.44-23.56c.33.33.53.6.53.73s-.26.26-.73.26H213.9a13.52,13.52,0,0,0-4.42.73l-1.85-2.38c1.65.13,3.3.27,4.82.27h11.74l2.64-3.63Zm13.46-6.07c7.13,2.51,9.44,4.22,9.44,7,0,1.65-.86,3-1.91,3-.46,0-1.13-.59-1.46-1.65-.65-2.11-3.23-5.61-6.46-7.65Z" transform="translate(-162.93 -93.68)"/></g><g class="cls-8"><path class="cls-9" d="M225.41,360.65c-.59,8.78-5.34,9-5.54,9a2,2,0,0,1-2-1.91c0-.66.39-1.25,1.45-2,2.9-2,4.16-4.29,5.08-10.49h1a12.61,12.61,0,0,1,.13,2.18,15.92,15.92,0,0,1-.06,1.65h45.67l2-2.12,3.5,3.44c.46.46.66.79.66,1s-.27.39-.73.46c-2.37.26-3.83,1.38-8.44,6.14l-.8-.53,3.9-6.8Zm49.3-19a1.66,1.66,0,0,1,.59,1c0,.27-.33.47-.92.47H249.17v7.78h12.08l2.64-3.3,3.49,3.37c.4.39.6.66.6.92s-.33.53-.93.53H232.87a13.75,13.75,0,0,0-4.23.66l-1.78-2.44a36.49,36.49,0,0,0,4.62.26h14.59V343.1H226.53a15.09,15.09,0,0,0-4.42.66l-1.85-2.45a39.71,39.71,0,0,0,4.82.27h21v-2.64c0-2.58-.07-4.16-.2-6.47l4.95,2c.66.26.92.53.92.79s-.26.53-2.57,1.72v4.62H268.7l2.45-3.43Zm-39.07,37.62v6.67c0,2.24.92,3.43,3.56,3.56,3.57.2,7.07.26,10.36.26a140.47,140.47,0,0,0,14.33-.66c2.64-.26,3.3-.85,4.22-11.68h1.06c-.14,6.73.46,8,2.11,9a.94.94,0,0,1,.52.8c0,.52-1.65,4.29-5,4.62-4.75.46-11.75.65-18.08.65-13.6,0-16.17,0-16.17-5.47V369.49c0-2.64-.07-4.75-.2-6.13l4.88,2.5c.4.2.6.47.6.73s-.2.46-2.18,1.39v9.83c15.51-6.4,21.32-9.24,24.81-11.88l3,3.1a1.68,1.68,0,0,1,.59.93c0,.13-.13.26-.46.26-.13,0-.66-.07-.79-.07-.73,0-2.18.33-5.74,1.59Z" transform="translate(-162.93 -93.68)"/></g><path class="cls-2" d="M592.92,544.38c1.44,1.44,2.27,2.47,2.27,3.29s-1,1-3.09,1H426.54c-4.33,0-10.3.83-13.8,2.27L407,542.53c5.14.41,10.29.82,15,.82H494.7V401.27c0-11.95-.21-20.18-.62-27.18l15.44,7.62c1.45.82,2.27,1.23,2.27,2.05,0,.62-.82,1.45-2.06,2.48l-5.15,4.32v52.71h54.36L567.8,432l12.56,12.35c1.44,1.45,2.26,2.47,2.26,3.09,0,.83-1,1-2.88,1H504.58v94.93H571.3l8.24-12.15Z" transform="translate(-162.93 -93.68)"/><path class="cls-2" d="M681.87,391.59c1,.62,1.44,1.23,1.44,1.65,0,.61-.62,1-1.65,1.85l-5.35,3.71v28.82c0,5.56.21,10.92.62,15.45v1c0,2.06-.83,3.09-5.77,5.15a7.86,7.86,0,0,1-2.88.82c-1,0-1.24-.62-1.24-1.65v-8.65H638.22l-7.62,40.57h29.65l6.38-8L679.19,481c.62.41,1,.82,1,1.44,0,.41-.41,1-1.44,1.65l-6,3.91c-1,29.86-4.94,51.27-9.68,58.68-5.15,8.24-9.88,11.74-21,16.68a7.92,7.92,0,0,1-1.24.42c-.82,0-1.44-.62-1.64-2.06-1.45-6-5.56-8.86-23.68-13.8l.61-3.5c10.71,2.26,18.33,3.5,23.89,3.5,9.47,0,13.18-3.5,16.27-10.3,3.5-7.82,6.59-27.79,6.79-53.53H633.69l-5,5.35a2.81,2.81,0,0,1-1.85,1c-.41,0-.62-.21-1-.41l-13-7.62L622,477l6.59-36.24a130.22,130.22,0,0,0,2.06-14.62l9.88,9.89H667v-41H632.86c-4.32,0-10.29.82-13.79,2.26l-5.77-7.2c5.15.41,10.3.82,15,.82h35.42l5.35-8.44Zm118.2,21.21c1.44,1.44,2.06,2.26,2.06,2.88,0,.83-1,1-3.09,1h-97c-4.32,0-10.3.82-13.8,2.27l-5.76-7.62c5.15.41,10.29.82,15,.82h80.72l9.27-11.53ZM752.29,502c24.1,20.18,37.07,36.24,37.07,45.3,0,7.42-3.91,13.39-7,13.39-2.47,0-4.74-2.47-4.94-7.21,0-2.88-1.65-8.24-4.53-14.62l-57.25,7.62c-9.06,1.23-17.91,3.91-21.21,6.18a3,3,0,0,1-1.23.41c-.62,0-1.24-.41-2.06-1.65l-7.21-11.53c9.88-1.65,11.12-2.27,19.77-12.77a632.33,632.33,0,0,0,39.74-54.15c-29.86,4.94-40,7.82-45.1,10.91a3.27,3.27,0,0,1-1.64.62c-.62,0-1-.41-1.65-1.24l-7.83-10.29c6.39-1.24,10.09-3.5,15.45-11.33,6.38-9.27,15.65-27,21.83-43l11.73,5.77c1.65.82,2.27,1.44,2.27,2.06s-.62,1-2.06,1.44c-3.09.82-5.77,2.68-9.47,8.24-8.45,12.76-17.09,25.12-26.57,35.83l45.92-3.09c6.59-10.3,12.77-20.39,17.92-29.65L776.39,447c1,.62,1.64,1.24,1.64,1.85,0,.42-.61.83-1.64,1.24a22.64,22.64,0,0,0-10.71,7.82c-18.53,26.16-48,64.25-66.72,81.55l72.28-3.91a141.31,141.31,0,0,0-20.59-31.3ZM724.91,372.65c22.24,9.88,27.8,17.91,27.8,23.06s-5,11.73-8.24,11.73c-2.06,0-3.3-1.44-3.71-5.14-.82-7.42-7.82-19.77-17.71-27.6Z" transform="translate(-162.93 -93.68)"/><path class="cls-10" d="M223.41,363.65c-.59,8.78-5.34,9-5.54,9a2,2,0,0,1-2-1.91c0-.66.39-1.25,1.45-2,2.9-2,4.16-4.29,5.08-10.49h1a12.61,12.61,0,0,1,.13,2.18,15.92,15.92,0,0,1-.06,1.65h45.67l2-2.12,3.5,3.44c.46.46.66.79.66,1s-.27.39-.73.46c-2.37.26-3.83,1.38-8.44,6.14l-.8-.53,3.9-6.8Zm49.3-19a1.66,1.66,0,0,1,.59,1c0,.27-.33.47-.92.47H247.17v7.78h12.08l2.64-3.3,3.49,3.37c.4.39.6.66.6.92s-.33.53-.93.53H230.87a13.75,13.75,0,0,0-4.23.66l-1.78-2.44a36.49,36.49,0,0,0,4.62.26h14.59V346.1H224.53a15.09,15.09,0,0,0-4.42.66l-1.85-2.45a39.71,39.71,0,0,0,4.82.27h21v-2.64c0-2.58-.07-4.16-.2-6.47l4.95,2c.66.26.92.53.92.79s-.26.53-2.57,1.72v4.62H266.7l2.45-3.43Zm-39.07,37.62v6.67c0,2.24.92,3.43,3.56,3.56,3.57.2,7.07.26,10.36.26a140.47,140.47,0,0,0,14.33-.66c2.64-.26,3.3-.85,4.22-11.68h1.06c-.14,6.73.46,8,2.11,9a.94.94,0,0,1,.52.8c0,.52-1.65,4.29-5,4.62-4.75.46-11.75.65-18.08.65-13.6,0-16.17,0-16.17-5.47V372.49c0-2.64-.07-4.75-.2-6.13l4.88,2.5c.4.2.6.47.6.73s-.2.46-2.18,1.39v9.83c15.51-6.4,21.32-9.24,24.81-11.88l3,3.1a1.68,1.68,0,0,1,.59.93c0,.13-.13.26-.46.26-.13,0-.66-.07-.79-.07-.73,0-2.18.33-5.74,1.59Z" transform="translate(-162.93 -93.68)"/><path class="cls-10" d="M257.38,545.93a50.27,50.27,0,0,0-.27,5.15c0,5.34,1.06,7.72,1.65,8.58,1,1.25,1.32,1.91,1.32,2.31a1,1,0,0,1-1,.86c-.72,0-2-.4-4.48-1.85-9.44-5.48-14.39-12-16.83-20.06a92.69,92.69,0,0,1-2.71-16.9H206.89a13.56,13.56,0,0,0-4.42.73l-1.85-2.44a43.39,43.39,0,0,0,4.82.26H235c-.2-5.94-.33-12.61-.27-20.19l4.95,3.16c.4.27.6.4.6.6s-.2.26-.47.39l-1.78,1c-.2,2.77-.26,5.35-.26,7.92,0,2.31.06,4.69.2,7.13h14.51l2.84-3.76,4,4.29a.9.9,0,0,1,.33.66c0,.13-.13.26-.53.26H238a80.55,80.55,0,0,0,2.64,16.43c2.51,7.79,6.6,12.15,12.34,15.45a3.32,3.32,0,0,0,1.52.66c.33,0,.46-.33.59-1.13l1.19-9.5Zm-22.64,3.24-21.45,5.14c-6.07,1.65-6.93,2.11-7.85,3.11-.2.26-.33.32-.53.32s-.33-.13-.52-.52l-2.12-3.63,32.34-5.48ZM232.1,536a.8.8,0,0,1,.27.53c0,.2-.2.26-.6.26h-21a13.62,13.62,0,0,0-4.43.73l-1.84-2.44c1.65.13,3.3.26,4.81.26h16.31l2.77-3Zm-2.44-23.56c.33.33.53.6.53.73s-.26.26-.73.26H212.9a13.52,13.52,0,0,0-4.42.73l-1.85-2.38c1.65.13,3.3.27,4.82.27h11.74l2.64-3.63Zm13.46-6.07c7.13,2.51,9.44,4.22,9.44,7,0,1.65-.86,3-1.91,3-.46,0-1.13-.59-1.46-1.65-.65-2.11-3.23-5.61-6.46-7.65Z" transform="translate(-162.93 -93.68)"/><path class="cls-10" d="M372.26,813.87c.27.26.4.46.4.59s-.2.27-.73.27H350.29a13.62,13.62,0,0,0-4.43.72L344,813.34c1.65.13,3.3.27,4.81.27h2.78V794.14c0-2.71-.07-7.13-.2-9.57l3.76,3h10.62l2.25-2.9,3.36,3.37c.2.19.33.33.33.46s-.19.2-.72.2h-16.3v8.11H364l1.85-2.83,3.17,3.3c.2.19.26.33.26.39s-.2.27-.66.27H354.71v7.59h9.5l2.18-2.91,2.9,3.37a.8.8,0,0,1,.27.46c0,.13-.2.2-.6.2H354.71v6.93h12.34l2.18-2.91Zm-10.16,7.92c1.65,1.39,7.52,6.6,7.52,10.29,0,1.72-1.05,2.58-1.65,2.58-.92,0-1.32-.86-1.78-2.64a22.42,22.42,0,0,0-1.05-3.23c-11.69,2.63-14.59,3.43-15.78,4.29a1.18,1.18,0,0,1-.59.26c-.13,0-.33-.13-.53-.4l-2.44-3.23a7.5,7.5,0,0,0,4.75-2.84,91.39,91.39,0,0,0,6-11.48l3.56,2.18c.26.13.33.26.33.39s-.07.13-.33.2a2.32,2.32,0,0,0-1.72.73l-8.71,10.89,15.12-1.85a22.33,22.33,0,0,0-3.3-5.55Zm43.89-22q.39.41.39.6c0,.13-.2.2-.59.2h-7.66a68.5,68.5,0,0,0,.27,8.24c0,.27.06.47.06.6,0,.79-.33,1-1.52,1.65a4.18,4.18,0,0,1-1.38.53c-.4,0-.4-.07-.4-2.51H386v8.58h8.12l2.44-3,3.1,3.1c.4.4.59.66.59.8s-.26.26-.85.26H386v8h12.47l2.38-3.36,3.43,3.43c.4.39.59.66.59.79s-.26.26-.85.26H386c0,6.21,0,9.24.13,11.55v.53c0,.86-.2,1.12-1.38,1.72a3.87,3.87,0,0,1-1.52.59c-.4,0-.46-.4-.46-1.25v-1.06c.13-2.84.19-6.2.19-12.08h-6.46a13.62,13.62,0,0,0-4.43.73l-1.84-2.11c1.65.13,3.3.26,4.81.26H383v-8h-5.21a13.26,13.26,0,0,0-4.42.73l-1.85-2.12c1.65.14,3.3.27,4.82.27H383v-8.58h-4.81a13.62,13.62,0,0,0-4.43.72l-1.84-2.11c1.65.14,3.3.27,4.81.27H383v-7.39h-6.6a13.56,13.56,0,0,0-4.42.72l-1.85-2.11c1.65.13,3.3.26,4.82.26H383v-8.31h-3.76a13.56,13.56,0,0,0-4.42.72l-1.85-2.11c1.65.14,3.3.27,4.82.27H383c0-2.78,0-7.39-.13-9.77l4.95,2.71c.4.19.66.39.66.52A11.62,11.62,0,0,1,386,785v5.09h8.38l1.78-2.38,3.57,2.71c.39.33.66.52.66.72a9.57,9.57,0,0,1-2.25,1.39v7h2.64l2.05-3Zm-10.83-.33v-8.31H386v8.31Zm0,8.52v-7.39H386V808Z" transform="translate(-162.93 -93.68)"/><path class="cls-10" d="M302.64,698.66c-3.3,0-4.42.86-5.41,2.18a.48.48,0,0,1-.46.26.72.72,0,0,1-.46-.13c-9.17-4.88-13.73-9.37-18.22-16.37h-12.6a72.61,72.61,0,0,1-24.68,19.14l-.6-.86A80.77,80.77,0,0,0,261.6,684.6H248a13.56,13.56,0,0,0-4.42.73l-1.85-2.44c1.65.13,3.3.26,4.82.26h16.17a59.91,59.91,0,0,0,5.08-7.72c-10.82.86-11.75,1-12.87,1.58a1.38,1.38,0,0,1-.59.2.57.57,0,0,1-.46-.2l-3.11-3.36a15.77,15.77,0,0,0,5.81-1.85c2.84-1.85,7-5.15,13.13-11.35l3.9,2.51a.62.62,0,0,1,.39.46q0,.3-1,.39a6.24,6.24,0,0,0-3.69,1.26c-7.13,5.15-9.84,7-12.48,8.64l29.44-1.05a52.79,52.79,0,0,0-7.59-6.6l.59-.66c9.11,4.62,13.27,7.65,13.27,10.49,0,1.52-.93,2.84-1.65,2.84a1.92,1.92,0,0,1-1.59-1.45,11.69,11.69,0,0,0-2.11-3.5l-18,1.52,2.9,1.45c.4.2.59.33.59.46s-.19.27-.52.33a4.75,4.75,0,0,0-2.51,1.65,45.41,45.41,0,0,1-3,4h26.73l2.9-3.89,4.55,4.49c.33.33.47.52.47.65s-.2.2-.53.2H279.68c6.66,8.52,14,11.82,23,13.33Zm-9.5,9.11c.27.26.4.46.4.59s-.13.26-1.59.26a10.55,10.55,0,0,0-4.09.8c-15.44,7.52-28.57,12.07-44.61,12.67V721c19.2-2.18,36.1-9.5,46.06-16.76Zm-15.05-16c.27.19.4.33.4.46s-.07.13-.79.13a6.58,6.58,0,0,0-3.23,1.06c-9.71,6.79-16.17,10.09-26.6,13.46l-.26-1c10.55-4.62,20.39-10.56,26.33-17.09Zm6.27,8.11c.33.27.47.4.47.53s-.14.2-.86.2a10.74,10.74,0,0,0-3.7,1c-12.6,7.13-20.46,10.1-30.42,12.47l-.26-.86c10.88-3.69,24.15-10.36,30.81-16.23Z" transform="translate(-162.93 -93.68)"/><path class="cls-10" d="M503.77,837c.52.33.79.59.79.79s-.33.53-1,.72c-1.26.4-1.45.6-2.11,2-1.46,3.17-3.24,6.74-5.15,10.37l2.18,1.12c.33.2.52.33.52.53s-.19.46-1.78,2v27.2c0,4.48.13,7.78.27,10.42v.53c0,.86-.2,1.12-1.59,1.72a3.84,3.84,0,0,1-1.32.39c-.46,0-.59-.39-.59-1.38v-.73c.13-3.89.2-7.66.2-11.09V854.74a76.17,76.17,0,0,1-9.9,14.32l-.79-.59a130.87,130.87,0,0,0,16-34.06Zm41.37,51.87c.4.33.6.59.6.79s-.33.26-.93.26H504.49a13.56,13.56,0,0,0-4.42.73l-1.85-2.44a40.32,40.32,0,0,0,4.82.26h8.58L514.79,862h-5.55a13.56,13.56,0,0,0-4.42.72L503,860.28a40.39,40.39,0,0,0,4.82.27H515l2.12-17.69h-7.26a13.26,13.26,0,0,0-4.42.73l-1.85-2.45a40.39,40.39,0,0,0,4.82.27h26.39l2.64-3.7,4.36,4c.39.39.59.66.59.86s-.26.26-.86.26H520.07L518,860.55h12.74l2.31-3,4.36,2.84c.33.19.46.39.46.59s-.13.39-.46.59l-2.18,1.59-1.25,25.27h4.68l2.44-3.43ZM532.21,862H517.76l-3.17,26.46h16.3Z" transform="translate(-162.93 -93.68)"/><path class="cls-10" d="M648.7,847.72c.33.2.46.4.46.53s-.19.33-.59.46c-2.05.73-2.44,1.19-3.63,3.7l-5.54,11.88c6.4,5.94,8,10,8,14.65,0,3.56-2,6-5.74,7.79a1.94,1.94,0,0,1-.46.13c-.26,0-.4-.13-.53-.53-.86-2.18-1.78-2.57-5.35-3.43v-1.06a26.59,26.59,0,0,0,4.16.4c2.58,0,4.89-.6,4.89-5,0-3.17-1.52-7.85-6.27-12.87l5.14-16.17h-8.77v39.07c0,5,0,10,.2,13v.46c0,.73-.2,1.06-1.59,1.72a4.07,4.07,0,0,1-1.19.46c-.46,0-.52-.4-.52-1.45v-.73c.13-3.89.19-9.83.19-13.59V852.8c0-2.7-.13-7.19-.26-9.63l4,3.76h7.33l1.85-2.44Zm36.83,49.63c.52.53.72.86.72,1.06s-.33.26-1,.26H648.5a15.09,15.09,0,0,0-4.42.66l-1.85-2.24c1.59.13,3.3.26,4.82.26h16.83V884.94h-9.3a14.06,14.06,0,0,0-4.23.66l-1.78-2.24c1.52.13,3.17.26,4.62.26h10.69v-5.8c0-2.58-.07-4.16-.2-6.47l4.75,2.44c.33.2.47.33.47.46a12,12,0,0,1-1.92,1.32v8h8.78l2.77-3.43,3.37,3.63c.39.46.59.73.59.86s-.26.26-.73.26H667v12.41h12.14l3.17-3.36Zm-.2-34.51c.46.46.72.79.72,1s-.33.33-1,.33H651.14a15.09,15.09,0,0,0-4.42.66l-1.85-2.25c1.59.13,3.3.27,4.82.27h14.12v-9.71h-9.17a14,14,0,0,0-4.22.66l-1.78-2.24c1.51.13,3.16.26,4.62.26h10.55v-3.95c0-2.58-.06-4.16-.19-6.47l4.55,2.24c.4.2.53.33.53.53s-.13.33-1.78,1.45v6.2h9.3l2.77-3.3,3.24,3.5c.39.46.59.73.59.86s-.26.26-.73.26H666.92v9.71h12.47l2.7-3.3Zm-23.63,5.34c.4.2.66.4.66.53s-.26.26-.72.33a3.42,3.42,0,0,0-2.51,1.25,110.75,110.75,0,0,1-10.63,10.5l-.66-.66a102.45,102.45,0,0,0,9.9-14Zm8.12-1.06c9.24,3.11,14,4.89,14,9.18a2.08,2.08,0,0,1-1.91,2.31c-.46,0-1.12-.66-1.45-1.26-2.51-4.09-5.42-6.53-11-9.43Z" transform="translate(-162.93 -93.68)"/></svg>